<svg width="1440" height="624" fill="none" xmlns="http://www.w3.org/2000/svg"><path d="M1129.88 191.662c55.68 18.925 116.95 8.518 98.03 64.195-18.93 55.676-141.05 123.609-196.72 104.683-55.68-18.925-14.94-109.139 3.99-164.815 18.92-55.677 39.03-22.989 94.7-4.063zm-485.628-53.333c33.3 11.319 69.947 5.095 58.628 38.395-11.32 33.3-84.358 73.93-117.658 62.611-33.3-11.319-8.933-65.276 2.387-98.576 11.319-33.3 23.343-13.749 56.643-2.43z" fill="#8C30F5"/><path d="M280.915 276.483c0 55.203 27.761 106.517-27.442 106.517C198.271 383 101 294.987 101 239.784c0-55.202 92.489-46.247 147.691-46.247 55.203 0 32.224 27.744 32.224 82.946zm583.654 105.031c0 40.675 20.455 78.486-20.22 78.486C803.673 460 732 395.148 732 354.473c0-40.676 68.15-34.077 108.825-34.077 40.676 0 23.744 20.443 23.744 61.118z" fill="#18E1F7"/></svg>